<?xml version="1.0" standalone="no"?>
<!DOCTYPE svg PUBLIC "-//W3C//DTD SVG 20010904//EN"
 "http://www.w3.org/TR/2001/REC-SVG-20010904/DTD/svg10.dtd">
<svg version="1.0" xmlns="http://www.w3.org/2000/svg"
 width="246.000000pt" height="270.000000pt" viewBox="0 0 246.000000 270.000000"
 preserveAspectRatio="xMidYMid meet">

<g transform="translate(0.000000,270.000000) scale(0.100000,-0.100000)"
fill="#000000" stroke="none">
<path d="M981 2675 c-409 -85 -733 -321 -934 -679 l-47 -83 0 -564 0 -564 48
-86 c196 -349 526 -590 925 -676 116 -25 399 -25 517 0 299 64 551 210 754
436 64 71 148 194 190 278 l26 52 0 562 0 562 -46 84 c-157 288 -431 520 -743
628 -149 51 -244 67 -421 71 -133 3 -171 0 -269 -21z m737 -499 c15 -8 102
-90 195 -183 227 -229 228 -197 -16 -440 -162 -163 -186 -183 -215 -183 -18 0
-45 6 -60 14 -15 8 -100 88 -188 178 -170 171 -186 196 -164 252 12 33 329
352 362 366 33 13 55 12 86 -4z m-637 -175 l29 -29 0 -241 0 -241 -29 -32 -29
-33 -234 -3 c-219 -2 -235 -1 -266 18 -18 11 -37 32 -42 46 -6 14 -10 124 -10
245 0 231 5 264 47 288 11 6 115 11 261 11 l244 0 29 -29z m-22 -795 c47 -25
51 -48 51 -301 0 -233 0 -234 -24 -262 l-24 -28 -238 -3 c-261 -3 -281 0 -309
51 -14 28 -16 61 -13 265 l3 234 33 29 32 29 231 0 c179 0 236 -3 258 -14z
m820 -2 c45 -32 51 -68 51 -289 0 -221 -6 -257 -51 -289 -20 -14 -58 -16 -262
-16 l-239 0 -29 29 -29 29 0 244 c0 262 3 278 54 298 11 5 125 9 251 9 198 1
234 -1 254 -15z"/>
</g>
</svg>
