<?xml version="1.0" standalone="no"?>
<!DOCTYPE svg PUBLIC "-//W3C//DTD SVG 20010904//EN"
 "http://www.w3.org/TR/2001/REC-SVG-20010904/DTD/svg10.dtd">
<svg version="1.0" xmlns="http://www.w3.org/2000/svg"
 width="256.000000pt" height="270.000000pt" viewBox="0 0 256.000000 270.000000"
 preserveAspectRatio="xMidYMid meet">

<g transform="translate(0.000000,270.000000) scale(0.100000,-0.100000)"
fill="#000000" stroke="none">
<path d="M1145 2493 c-182 -65 -295 -221 -295 -407 0 -94 19 -145 133 -366
108 -211 157 -319 222 -497 21 -56 44 -104 53 -108 29 -11 51 6 68 53 90 246
196 480 293 651 28 48 57 114 66 146 53 207 -37 410 -223 502 -68 34 -83 38
-171 40 -73 3 -108 -1 -146 -14z m212 -252 c61 -28 98 -88 98 -160 -1 -68 -23
-110 -79 -149 -85 -58 -214 -23 -257 71 -23 51 -24 96 -4 144 21 50 42 72 90
94 51 24 99 23 152 0z"/>
<path d="M760 1549 c-334 -75 -614 -232 -734 -413 -26 -38 -26 -40 -26 -236
l0 -197 32 -44 c257 -356 1000 -542 1673 -420 375 68 693 234 817 425 l38 59
0 181 c0 208 1 205 -109 319 -98 102 -215 175 -398 248 -74 29 -330 99 -363
99 -14 0 -76 -107 -68 -116 2 -1 49 -13 103 -25 339 -73 591 -219 668 -387 32
-69 30 -180 -2 -247 -54 -111 -218 -237 -396 -306 -351 -136 -865 -162 -1255
-64 -306 78 -522 211 -601 372 -34 68 -34 178 1 248 84 174 335 317 675 386
61 12 112 24 114 25 1 2 -8 28 -22 58 -29 64 -25 63 -147 35z"/>
<path d="M915 1121 c-84 -25 -113 -38 -168 -73 -53 -34 -77 -71 -77 -119 0
-141 374 -254 731 -221 274 26 459 105 485 208 14 57 -40 120 -146 168 -59 27
-174 60 -191 54 -6 -2 -21 -30 -34 -62 -61 -151 -205 -215 -341 -152 -62 29
-108 82 -136 159 -24 65 -27 66 -123 38z"/>
</g>
</svg>
