<?xml version="1.0" standalone="no"?>
<!DOCTYPE svg PUBLIC "-//W3C//DTD SVG 20010904//EN"
 "http://www.w3.org/TR/2001/REC-SVG-20010904/DTD/svg10.dtd">
<svg version="1.0" xmlns="http://www.w3.org/2000/svg"
 width="980.000000pt" height="981.000000pt" viewBox="0 0 980.000000 981.000000"
 preserveAspectRatio="xMidYMid meet">

<g transform="translate(0.000000,981.000000) scale(0.100000,-0.100000)"
fill="#000000" stroke="none">
<path d="M4560 9788 c-982 -68 -1933 -441 -2715 -1065 -791 -631 -1367 -1493
-1653 -2473 -339 -1159 -220 -2455 325 -3543 324 -648 811 -1238 1406 -1700
618 -481 1364 -805 2182 -947 197 -34 403 -50 725 -56 447 -10 682 12 1096
101 701 151 1363 450 1909 863 262 198 586 503 799 752 543 634 902 1374 1071
2205 81 400 100 615 91 1040 -8 387 -25 574 -76 840 -91 476 -227 870 -455
1320 -250 494 -534 878 -946 1280 -1004 979 -2365 1480 -3759 1383z m445 -858
c105 -255 778 -1925 996 -2472 l134 -338 1529 -2 1529 -3 -1217 -913 c-669
-502 -1216 -919 -1216 -927 0 -29 128 -693 348 -1810 126 -638 233 -1178 237
-1199 l7 -39 -29 18 c-36 24 -427 314 -1241 924 -356 266 -766 570 -911 676
l-265 193 -45 -31 c-85 -57 -262 -188 -1246 -922 -539 -402 -1018 -759 -1065
-793 -53 -40 -86 -58 -88 -50 -3 14 61 341 322 1658 121 611 230 1180 260
1351 l6 36 -1217 914 -1218 914 1529 5 1530 5 521 1300 c601 1499 703 1750
710 1743 2 -2 47 -109 100 -238z"/>
</g>
</svg>
