<?xml version="1.0" standalone="no"?>
<!DOCTYPE svg PUBLIC "-//W3C//DTD SVG 20010904//EN"
 "http://www.w3.org/TR/2001/REC-SVG-20010904/DTD/svg10.dtd">
<svg version="1.0" xmlns="http://www.w3.org/2000/svg"
 width="432.000000pt" height="324.000000pt" viewBox="0 0 432.000000 324.000000"
 preserveAspectRatio="xMidYMid meet">

<g transform="translate(0.000000,324.000000) scale(0.100000,-0.100000)"
fill="#000000" stroke="none">
<path d="M2010 3215 c-8 -2 -51 -9 -95 -15 -79 -12 -241 -52 -280 -69 -11 -5
-39 -16 -63 -25 -77 -29 -206 -94 -276 -141 -38 -25 -73 -45 -79 -45 -5 0 -6
-11 -3 -24 7 -28 -11 -46 -20 -21 -9 23 -55 -14 -182 -142 -97 -98 -102 -106
-84 -118 48 -34 65 -29 125 34 34 35 57 68 57 81 0 18 3 20 13 11 10 -8 20 -4
43 20 32 33 215 159 232 159 5 0 12 4 14 9 2 7 109 60 203 101 38 16 180 57
255 73 85 18 207 31 295 31 169 1 460 -55 547 -104 10 -6 23 -10 28 -10 6 0
39 -14 73 -31 36 -18 75 -31 93 -30 23 1 33 -3 36 -17 3 -11 36 -40 74 -64 38
-25 80 -55 93 -67 13 -11 27 -21 32 -21 4 0 24 -16 43 -35 20 -19 40 -35 45
-35 5 0 14 -6 20 -14 17 -20 -5 -39 -81 -66 -35 -12 -103 -37 -153 -56 -49
-18 -115 -41 -145 -50 -30 -9 -59 -20 -65 -24 -5 -4 -24 -11 -41 -14 -24 -5
-46 1 -105 32 -41 21 -96 46 -124 56 -27 10 -59 21 -70 26 -43 18 -205 40
-300 40 -92 0 -243 -21 -290 -40 -11 -4 -36 -14 -55 -20 -77 -28 -206 -97
-237 -127 -18 -18 -39 -33 -48 -33 -8 0 -53 -37 -99 -83 -106 -105 -199 -245
-241 -365 -22 -62 -24 -63 -90 -86 -27 -10 -59 -22 -70 -27 -45 -20 -387 -140
-391 -137 -13 14 69 372 88 384 4 3 8 15 8 28 0 12 4 26 8 32 5 5 19 33 31 62
24 58 18 75 -30 87 -19 4 -27 0 -41 -25 -16 -27 -16 -31 -2 -37 12 -4 11 -8
-7 -17 -12 -6 -27 -24 -32 -41 -5 -16 -15 -43 -22 -60 -35 -82 -85 -312 -85
-394 0 -42 -3 -49 -27 -61 -16 -7 -44 -21 -64 -31 -20 -11 -46 -19 -58 -19
-12 0 -38 -15 -58 -34 -30 -27 -35 -37 -26 -48 7 -8 13 -31 15 -52 1 -20 6
-40 10 -42 4 -3 8 -14 8 -25 0 -10 9 -28 20 -39 11 -11 17 -26 14 -35 -6 -14
8 -62 36 -130 4 -11 13 -33 19 -50 6 -16 16 -43 22 -60 6 -16 26 -70 44 -120
18 -49 52 -142 75 -205 23 -63 58 -159 78 -213 26 -74 42 -103 64 -119 16 -11
31 -18 34 -16 6 6 6 46 0 88 -3 19 -3 26 0 15 3 -11 9 -29 14 -40 5 -11 10
-29 12 -40 2 -12 11 -20 23 -20 21 0 22 7 10 63 -10 43 6 41 35 -7 14 -21 30
-36 35 -32 6 4 27 13 48 20 l38 13 62 -59 c34 -33 75 -68 92 -79 32 -20 59
-41 81 -63 8 -7 26 -11 39 -8 21 3 25 0 25 -20 0 -21 4 -24 23 -19 17 4 25 0
32 -16 10 -21 102 -74 195 -112 25 -10 63 -27 85 -36 22 -10 59 -21 82 -25 24
-4 45 -11 49 -16 3 -5 16 -9 30 -9 19 0 24 5 24 25 0 16 6 25 15 25 20 0 19
16 -1 24 -27 10 -34 7 -35 -16 -1 -20 -3 -18 -15 10 -8 18 -21 32 -32 32 -9 0
-30 7 -46 15 -15 8 -39 15 -51 15 -13 0 -25 3 -27 8 -1 4 -27 18 -55 31 -47
21 -56 23 -78 11 -29 -16 -56 0 -48 29 5 21 -4 29 -75 68 -75 41 -262 195
-259 213 1 8 16 19 32 24 17 5 44 15 60 21 17 7 48 19 70 26 22 7 44 17 50 21
5 4 16 8 24 8 12 0 121 37 206 70 11 4 31 12 44 17 18 7 38 1 95 -28 40 -20
82 -40 95 -44 20 -6 22 -4 19 21 -2 21 -13 33 -43 49 -52 26 -60 38 -32 49 12
5 39 17 60 28 21 10 47 18 57 18 11 0 28 4 38 9 9 5 35 16 57 24 22 8 64 24
94 36 29 12 58 21 63 21 6 0 24 6 41 14 18 8 59 23 92 34 93 31 178 62 200 72
11 5 85 32 165 60 80 28 154 55 165 60 11 5 74 27 140 50 66 23 129 45 140 50
44 19 65 21 65 8 0 -28 -72 -159 -129 -235 -54 -72 -96 -115 -175 -181 -68
-57 -212 -134 -301 -162 -22 -7 -51 -17 -65 -21 -34 -12 -192 -29 -265 -29
-34 0 -66 -5 -73 -12 -9 -9 -12 -8 -12 6 0 9 -4 14 -10 11 -5 -3 -10 -18 -10
-32 0 -18 4 -24 15 -20 8 4 17 2 20 -3 15 -24 267 -3 373 31 89 28 195 73 237
100 25 16 48 29 51 29 3 0 10 4 17 10 110 89 141 117 186 166 80 90 160 220
199 324 22 59 27 64 88 85 32 11 61 23 62 28 2 4 12 7 23 7 11 0 27 4 37 9 9
5 58 23 107 41 50 17 98 35 107 41 10 5 26 9 36 9 10 0 22 4 27 9 6 5 21 11
35 13 29 3 29 1 11 -117 -16 -108 -76 -316 -93 -323 -4 -2 -8 -10 -8 -19 0
-16 -69 -155 -109 -218 -150 -236 -384 -446 -622 -558 -125 -59 -141 -65 -231
-92 -127 -38 -199 -49 -428 -69 -31 -3 -35 -6 -38 -36 -2 -18 1 -37 7 -43 8
-8 11 0 11 27 0 23 4 35 10 31 6 -4 10 -14 8 -23 -3 -20 9 -42 23 -42 5 0 9 9
9 20 0 17 3 18 25 8 14 -6 25 -15 25 -20 0 -12 78 -10 85 2 3 6 25 10 48 10
65 1 252 47 357 90 326 131 572 329 769 622 46 69 50 79 39 102 -8 20 -8 35 1
67 12 40 13 40 36 25 23 -15 25 -15 38 11 8 16 24 55 36 88 13 33 27 68 32 77
5 11 5 19 -2 24 -7 4 -5 12 4 22 8 10 17 26 22 37 15 40 45 211 45 258 0 27 4
57 10 67 10 20 63 50 87 50 25 0 121 50 127 67 9 24 -1 28 -22 10 -10 -10 -23
-17 -29 -17 -15 0 10 70 31 85 24 18 21 36 -23 140 -5 11 -17 47 -27 80 -9 33
-20 67 -24 75 -4 8 -12 26 -17 40 -22 56 -75 197 -85 225 -21 61 -40 96 -55
102 -11 4 -12 8 -2 13 9 6 8 20 -6 58 -18 49 -19 50 -35 31 -10 -10 -22 -19
-28 -19 -15 0 -2 42 19 60 17 14 16 18 -11 75 -16 33 -29 65 -29 72 -2 24 -43
93 -57 93 -8 0 -14 5 -14 10 0 18 -65 11 -130 -15 -35 -14 -81 -25 -101 -25
-21 0 -41 -4 -44 -10 -7 -12 -45 -13 -45 -2 0 5 11 14 25 20 28 13 25 37 -7
45 -11 3 -17 10 -13 16 3 6 2 11 -2 11 -5 0 -26 16 -48 35 -26 22 -50 35 -69
35 -22 0 -26 3 -18 13 16 19 -93 93 -113 77 -21 -18 -48 -5 -40 19 4 14 0 21
-17 26 -13 4 -32 15 -43 25 -20 18 -96 55 -165 79 -19 7 -44 17 -55 21 -48 20
-179 55 -265 70 -61 11 -398 23 -430 15z m830 -191 c0 -12 -4 -12 -20 -4 -11
6 -18 15 -15 20 8 13 35 0 35 -16z m50 -15 c0 -12 -29 -24 -37 -16 -3 4 -3 13
0 21 6 16 37 11 37 -5z m760 -364 c0 -9 -59 -35 -80 -35 -31 0 -24 18 13 29
36 10 67 13 67 6z m-1348 -61 c57 -8 137 -27 178 -40 74 -25 180 -74 180 -84
0 -3 -26 -13 -58 -24 -31 -10 -75 -27 -96 -37 -22 -11 -44 -19 -50 -19 -15 0
-208 -71 -248 -91 -10 -5 -24 -9 -33 -9 -8 0 -29 -6 -47 -14 -18 -8 -67 -27
-108 -41 -41 -15 -84 -30 -95 -35 -23 -10 -138 -51 -210 -75 -27 -9 -58 -21
-67 -26 -10 -5 -25 -9 -33 -9 -8 0 -15 -4 -15 -10 0 -5 -8 -10 -18 -10 -10 0
-63 -16 -118 -36 -54 -20 -108 -39 -119 -42 -11 -2 -24 -8 -30 -12 -21 -15
-65 -21 -65 -8 0 21 69 149 115 213 24 34 45 72 47 85 2 17 9 24 20 22 23 -4
128 96 121 115 -5 12 -1 14 17 8 12 -4 25 -3 29 2 7 11 105 73 115 73 4 0 19
8 33 17 41 27 158 63 268 83 128 23 162 23 287 4z m1042 -225 c51 -13 88 -45
117 -101 26 -51 22 -121 -9 -166 -29 -39 -28 -47 7 -62 30 -12 80 -61 100 -98
6 -11 17 -26 23 -34 31 -32 69 -98 63 -107 -3 -6 -14 -11 -24 -11 -10 0 -21
-3 -25 -7 -11 -11 -79 -32 -88 -27 -4 3 -29 35 -55 72 -87 125 -110 141 -172
121 -20 -6 -39 -15 -44 -18 -7 -7 3 -39 33 -106 4 -11 10 -29 13 -40 3 -11 12
-36 20 -56 9 -19 13 -40 9 -46 -4 -5 -34 -20 -67 -31 -70 -25 -72 -24 -99 58
-10 30 -22 64 -26 75 -5 11 -16 40 -24 65 -8 25 -20 59 -26 75 -35 85 -108
289 -111 305 -3 31 2 37 54 59 28 13 66 29 83 37 36 16 161 51 187 53 10 1 37
-4 61 -10z m363 -26 c-9 -9 -19 -14 -23 -11 -10 10 6 28 24 28 15 0 15 -1 -1
-17z m-863 -155 c35 -80 34 -83 -54 -112 -30 -10 -64 -21 -75 -26 -11 -4 -35
-14 -53 -20 -30 -12 -32 -16 -26 -43 18 -85 41 -109 82 -88 40 22 172 63 185
58 16 -6 46 -85 40 -104 -3 -7 -10 -13 -16 -13 -16 0 -177 -60 -205 -76 -8 -5
44 -137 56 -142 7 -2 23 0 35 6 12 6 47 18 77 28 30 10 60 21 65 25 6 4 26 10
45 14 34 6 36 4 53 -34 9 -23 17 -47 17 -54 0 -19 -41 -37 -225 -99 -58 -19
-87 -30 -132 -51 -12 -5 -28 -7 -36 -4 -8 3 -31 54 -52 114 -21 59 -42 112
-47 117 -4 6 -8 18 -8 28 0 10 -4 26 -9 36 -5 9 -23 58 -41 107 -17 50 -35 99
-40 110 -14 33 -40 105 -40 110 0 6 54 29 115 50 98 34 190 67 210 75 24 10
48 18 57 19 4 1 14 -14 22 -31z m686 -79 c-17 -14 -26 -17 -28 -9 -5 14 16 30
38 30 10 -1 7 -7 -10 -21z m26 -27 c-8 -9 -19 -13 -22 -9 -10 9 16 38 28 31 6
-4 4 -13 -6 -22z m-1941 -32 c3 -5 1 -10 -4 -10 -6 0 -11 5 -11 10 0 6 2 10 4
10 3 0 8 -4 11 -10z m712 -22 c5 -7 17 -32 26 -56 l16 -43 -45 -20 c-25 -10
-50 -19 -55 -19 -5 0 -17 -4 -27 -9 -42 -21 -94 -41 -108 -41 -9 0 -14 -4 -12
-8 2 -4 14 -38 28 -76 18 -50 28 -66 40 -62 23 7 173 62 192 70 13 6 22 -2 37
-33 35 -68 31 -75 -62 -110 -46 -17 -90 -31 -99 -31 -20 0 -42 -26 -34 -39 4
-6 24 -60 46 -120 43 -122 45 -115 -35 -143 -64 -23 -72 -23 -80 5 -8 25 -82
232 -95 262 -5 11 -20 54 -35 95 -14 41 -30 82 -34 90 -5 9 -12 31 -16 50 -4
19 -11 40 -15 45 -4 6 -10 24 -14 40 -6 29 -4 31 57 51 158 54 225 79 277 102
33 14 36 14 47 0z m-837 -59 c0 -5 -7 -9 -15 -9 -15 0 -20 12 -9 23 8 8 24 -1
24 -14z m347 -146 c28 -66 27 -79 -9 -93 -18 -7 -47 -19 -65 -26 -17 -8 -38
-14 -46 -14 -9 0 -18 -4 -21 -9 -3 -4 -19 -11 -36 -14 -37 -8 -38 -21 -8 -99
21 -52 25 -57 48 -51 30 7 148 51 173 64 25 14 33 6 52 -52 19 -57 17 -60 -40
-78 -16 -5 -59 -21 -95 -34 -69 -26 -76 -38 -51 -92 27 -58 62 -167 59 -181
-2 -11 -27 -26 -66 -40 l-63 -23 -11 27 c-6 15 -14 36 -18 47 -4 11 -14 38
-23 60 -8 22 -24 65 -35 95 -11 30 -38 105 -60 165 -91 248 -88 236 -66 248
10 6 42 19 69 29 28 10 58 22 67 28 10 5 26 10 36 10 10 0 21 3 25 6 10 10
130 52 152 53 13 1 24 -9 32 -26z m-1207 -23 c-18 -11 -24 -6 -16 16 5 14 9
15 19 5 9 -9 9 -14 -3 -21z m-90 -140 c0 -11 -4 -20 -10 -20 -5 0 -10 9 -10
20 0 11 5 20 10 20 6 0 10 -9 10 -20z m672 -61 c116 -25 210 -126 252 -271 45
-154 -3 -283 -139 -375 -48 -33 -147 -57 -211 -50 -116 12 -199 77 -260 205
-34 71 -37 84 -38 167 0 74 4 98 22 136 49 99 138 168 242 188 64 12 73 12
132 0z m828 -134 c0 -7 5 -15 10 -17 6 -2 2 -8 -9 -15 -26 -16 -42 3 -30 35 9
24 29 22 29 -3z m10 -71 c0 -8 -5 -12 -10 -9 -6 4 -8 11 -5 16 9 14 15 11 15
-7z m-50 -14 c0 -5 -5 -10 -11 -10 -5 0 -7 5 -4 10 3 6 8 10 11 10 2 0 4 -4 4
-10z m-1553 -6 c-3 -3 -12 -4 -19 -1 -8 3 -5 6 6 6 11 1 17 -2 13 -5z m1623
-14 c0 -5 -2 -10 -4 -10 -3 0 -8 5 -11 10 -3 6 -1 10 4 10 6 0 11 -4 11 -10z
m-40 -20 c0 -5 -4 -10 -9 -10 -6 0 -13 5 -16 10 -3 6 1 10 9 10 9 0 16 -4 16
-10z m-110 -85 c0 -16 -6 -25 -15 -25 -9 0 -15 9 -15 25 0 16 6 25 15 25 9 0
15 -9 15 -25z m-1137 -214 c3 -11 -1 -22 -9 -25 -18 -7 -24 5 -17 32 6 25 18
21 26 -7z m12 -61 c3 -5 -1 -10 -10 -10 -9 0 -13 5 -10 10 3 6 8 10 10 10 2 0
7 -4 10 -10z m25 -40 c0 -5 -2 -10 -4 -10 -3 0 -8 5 -11 10 -3 6 -1 10 4 10 6
0 11 -4 11 -10z m-46 -21 c-3 -5 -10 -7 -15 -3 -5 3 -7 10 -3 15 3 5 10 7 15
3 5 -3 7 -10 3 -15z m-114 -79 c0 -31 -16 -41 -26 -15 -8 19 2 45 16 45 5 0
10 -13 10 -30z m616 -87 c-11 -11 -19 6 -11 24 8 17 8 17 12 0 3 -10 2 -21 -1
-24z m31 -435 c-3 -8 -6 -5 -6 6 -1 11 2 17 5 13 3 -3 4 -12 1 -19z m43 -12
c0 -11 -19 -15 -25 -6 -3 5 1 10 9 10 9 0 16 -2 16 -4z m350 -166 c0 -5 -5
-10 -11 -10 -5 0 -7 5 -4 10 3 6 8 10 11 10 2 0 4 -4 4 -10z"/>
<path d="M1887 2431 c-7 -32 -8 -33 -26 -17 -17 16 -18 16 -14 -8 4 -22 1 -25
-28 -29 l-34 -4 33 -1 c36 -2 44 -26 15 -48 -10 -7 -15 -15 -12 -18 3 -4 18 3
32 15 l27 20 0 -30 c0 -16 5 -33 10 -36 6 -4 10 7 10 24 0 35 6 38 32 14 17
-15 18 -15 18 0 0 10 -4 17 -9 17 -16 0 -6 65 13 83 23 21 8 23 -20 2 -28 -21
-32 -19 -36 18 l-3 32 -8 -34z"/>
<path d="M3186 2225 c-60 -21 -61 -26 -31 -107 15 -40 31 -77 36 -82 13 -14
85 13 112 43 34 36 40 64 23 105 -22 54 -67 67 -140 41z"/>
<path d="M1080 1463 c-48 -9 -89 -50 -105 -107 -14 -49 -14 -59 1 -122 24 -95
63 -155 125 -193 63 -39 147 -20 191 42 19 27 23 45 23 113 0 45 -5 87 -11 95
-7 8 -15 25 -19 39 -26 87 -122 149 -205 133z"/>
<path d="M2200 3025 c-5 -14 -10 -28 -10 -31 0 -2 -9 -23 -19 -47 -11 -23 -32
-78 -49 -122 -31 -85 -29 -95 18 -95 20 0 29 9 42 40 16 39 18 40 59 36 40 -3
44 -6 54 -42 10 -35 14 -39 48 -42 l37 -3 -6 43 c-4 24 -10 50 -14 58 -4 8
-15 51 -24 95 -24 109 -31 125 -58 125 -13 0 -33 3 -45 6 -18 5 -25 1 -33 -21z
m70 -137 c0 -23 -4 -28 -25 -28 -29 0 -33 22 -13 78 l13 34 12 -28 c7 -16 12
-41 13 -56z"/>
<path d="M1955 3029 c-4 -5 -2 -38 4 -72 6 -34 16 -101 22 -149 l12 -88 34 0
c31 0 40 9 33 35 -2 6 -7 42 -11 80 -22 198 -24 205 -59 205 -16 0 -32 -5 -35
-11z"/>
<path d="M1785 2999 c-27 -11 -63 -33 -79 -49 -25 -24 -30 -39 -34 -90 -5 -72
8 -109 55 -150 28 -25 42 -30 87 -30 92 0 159 41 124 76 -13 13 -18 13 -44 -1
-44 -23 -80 -19 -116 14 -29 26 -33 36 -33 79 0 61 21 88 79 99 37 8 41 12 41
38 0 37 -14 39 -80 14z"/>
<path d="M2494 2993 c-3 -10 -9 -27 -14 -38 -11 -29 -70 -231 -70 -242 0 -5
33 -17 73 -28 39 -10 78 -23 86 -29 10 -8 17 -5 27 9 21 29 18 55 -8 55 -31 0
-88 22 -88 35 0 13 58 213 65 225 6 10 -1 15 -38 24 -21 5 -29 2 -33 -11z"/>
<path d="M1465 2864 c-33 -19 -68 -38 -77 -41 -25 -8 -23 -22 12 -76 17 -26
30 -52 30 -57 0 -4 3 -10 8 -12 4 -1 23 -33 42 -70 19 -37 41 -68 49 -68 8 0
35 13 60 28 25 16 61 35 79 43 35 15 38 25 17 53 -13 18 -16 17 -69 -13 -31
-17 -57 -31 -60 -31 -2 0 -9 14 -16 31 -12 29 -12 33 11 50 13 10 29 19 35 19
22 0 33 22 22 46 -14 30 -20 30 -66 -1 -44 -30 -51 -30 -68 -7 -18 23 -17 42
1 42 8 0 15 5 15 10 0 6 7 10 15 10 8 0 15 5 15 10 0 6 7 10 15 10 21 0 30 27
15 45 -16 20 -15 20 -85 -21z"/>
<path d="M1265 2710 c-3 -5 -15 -10 -26 -10 -10 0 -42 -22 -70 -49 -58 -56
-57 -68 6 -118 19 -16 35 -32 35 -38 0 -5 27 -39 61 -74 l60 -65 27 27 c16 17
23 31 17 35 -5 4 -23 22 -39 40 l-30 32 25 28 c31 35 49 67 49 89 0 30 -37 80
-71 97 -38 19 -36 19 -44 6z m39 -93 c8 -13 7 -24 -4 -44 -8 -14 -20 -28 -27
-30 -11 -4 -63 45 -63 60 0 36 73 47 94 14z"/>
<path d="M930 2555 c7 -8 16 -15 21 -15 5 0 9 7 9 15 0 9 -9 15 -21 15 -18 0
-19 -2 -9 -15z"/>
<path d="M857 2543 c-12 -11 -8 -23 8 -23 8 0 15 -4 15 -9 0 -12 39 -21 45
-10 3 4 -3 17 -15 29 -20 20 -41 26 -53 13z"/>
<path d="M818 2486 c-10 -7 -18 -16 -18 -19 0 -3 -14 -29 -30 -58 -24 -40 -28
-54 -19 -65 6 -8 17 -14 24 -14 8 0 16 -6 18 -12 7 -15 37 20 64 72 10 19 23
38 28 43 6 4 1 15 -13 27 -13 10 -22 22 -22 27 2 13 -14 13 -32 -1z m22 -46
c0 -5 -4 -10 -9 -10 -6 0 -13 5 -16 10 -3 6 1 10 9 10 9 0 16 -4 16 -10z"/>
<path d="M1030 2480 c0 -20 35 -46 44 -32 6 11 -21 52 -35 52 -5 0 -9 -9 -9
-20z"/>
<path d="M976 2408 c-23 -32 -20 -39 12 -33 15 3 21 2 15 -1 -20 -9 -15 -32 8
-39 11 -4 24 -18 29 -31 13 -32 42 -31 94 6 43 29 44 29 61 10 17 -19 17 -21
0 -47 -9 -16 -28 -37 -41 -49 l-24 -20 23 -23 24 -22 42 47 c37 42 41 52 41
100 0 96 -55 118 -155 63 -71 -39 -92 -34 -87 21 5 47 -16 55 -42 18z"/>
<path d="M3126 1019 c-63 -74 -68 -146 -12 -182 35 -23 59 -21 118 8 27 14 58
25 69 25 29 0 24 -39 -11 -75 l-30 -31 24 -23 23 -22 37 42 c31 37 36 49 36
94 0 92 -55 115 -151 65 -33 -17 -67 -29 -75 -26 -25 9 -15 49 21 86 l35 36
-24 23 -23 22 -37 -42z"/>
<path d="M2390 910 c0 -5 5 -12 10 -15 20 -12 9 -25 -22 -26 -32 -2 -32 -2 -5
-6 37 -6 45 -29 17 -53 -13 -11 -18 -20 -13 -20 6 0 16 7 23 15 21 26 40 18
41 -17 l1 -33 7 30 c7 28 31 37 39 14 2 -5 9 -9 15 -9 8 0 7 4 -1 12 -20 20
-13 38 16 39 l27 1 -27 10 c-26 9 -40 38 -19 38 5 0 12 7 15 16 6 15 3 15 -20
-1 -26 -17 -28 -17 -41 1 -12 16 -13 16 -13 1 0 -9 -4 -17 -10 -17 -5 0 -10 4
-10 9 0 5 -7 11 -15 15 -8 3 -15 1 -15 -4z"/>
<path d="M2988 837 l-28 -24 26 -24 c43 -40 48 -58 26 -82 -51 -56 -57 -124
-16 -162 26 -24 47 -30 87 -27 24 2 107 60 107 74 0 6 8 17 18 24 15 13 15 13
0 8 -13 -4 -18 2 -23 28 -4 23 -31 60 -88 121 l-82 87 -27 -23z m119 -179 c26
-24 29 -45 9 -70 -11 -15 -18 -16 -45 -7 -26 9 -31 16 -31 43 0 32 15 56 34
56 5 0 20 -10 33 -22z"/>
<path d="M1800 665 c0 -20 5 -25 25 -25 14 0 25 -4 25 -10 0 -16 57 -12 63 4
7 18 -8 30 -59 44 -54 16 -54 16 -54 -13z"/>
<path d="M2770 664 c-19 -14 -54 -35 -77 -46 -44 -21 -55 -46 -29 -67 10 -8
21 -5 49 13 57 39 70 40 90 7 17 -29 17 -30 -5 -50 -12 -12 -27 -21 -34 -21
-6 0 -17 -7 -24 -16 -11 -12 -10 -18 3 -32 16 -15 20 -15 63 8 45 25 46 25 60
6 21 -30 18 -39 -25 -65 -38 -24 -44 -45 -17 -63 17 -11 86 33 86 55 0 15 3
17 13 8 10 -8 19 -7 32 3 21 15 20 18 -28 101 -72 126 -109 185 -115 185 -4
-1 -23 -12 -42 -26z m170 -234 c0 -5 -2 -10 -4 -10 -3 0 -8 5 -11 10 -3 6 -1
10 4 10 6 0 11 -4 11 -10z"/>
<path d="M1742 558 c-30 -30 8 -68 68 -68 36 0 40 -22 16 -95 -56 -168 -56
-171 -7 -177 25 -3 34 14 66 127 10 33 24 79 31 103 19 58 18 69 -8 75 -37 9
-122 35 -138 41 -9 4 -21 1 -28 -6z"/>
<path d="M2428 523 c-41 -17 -46 -29 -24 -58 11 -15 17 -17 28 -8 8 7 33 15
56 19 50 8 82 -10 106 -57 24 -48 20 -74 -18 -113 -26 -28 -41 -36 -70 -36
-33 0 -36 -2 -36 -30 0 -24 4 -30 23 -30 59 0 135 38 122 61 -4 5 1 6 9 3 26
-10 51 43 50 107 -1 62 -26 115 -69 143 -31 20 -126 20 -177 -1z"/>
<path d="M1967 468 c3 -18 7 -40 10 -48 7 -17 26 -88 45 -175 11 -49 18 -60
38 -66 51 -14 70 -10 81 19 7 15 15 36 20 47 7 18 20 51 74 196 16 42 12 49
-26 49 -23 0 -31 -7 -45 -37 -10 -21 -19 -39 -20 -41 -1 -2 -23 0 -48 3 -37 6
-46 11 -46 27 0 37 -19 58 -54 58 -31 0 -32 -2 -29 -32z m155 -142 c-4 -34
-27 -72 -36 -58 -3 5 -8 28 -12 51 -7 42 -7 43 22 39 26 -3 29 -7 26 -32z"/>
<path d="M2284 473 c2 -16 8 -59 11 -98 8 -92 25 -179 37 -186 5 -3 21 -4 35
-1 24 4 25 7 19 51 -3 25 -10 82 -15 126 -15 129 -18 135 -58 135 -32 0 -34
-2 -29 -27z"/>
<path d="M1852 78 c2 -23 8 -43 14 -45 15 -5 23 64 10 77 -20 20 -27 9 -24
-32z"/>
<path d="M1990 53 c0 -24 3 -33 9 -25 7 12 4 62 -5 62 -2 0 -4 -17 -4 -37z"/>
<path d="M2125 70 c3 -5 8 -10 11 -10 2 0 4 5 4 10 0 6 -5 10 -11 10 -5 0 -7
-4 -4 -10z"/>
</g>
</svg>
